<?xml version="1.0" encoding="UTF-8"?>
<!DOCTYPE svg PUBLIC "-//W3C//DTD SVG 1.1//EN" "http://www.w3.org/Graphics/SVG/1.1/DTD/svg11.dtd">
<svg version="1.1" xmlns="http://www.w3.org/2000/svg" xmlns:xlink="http://www.w3.org/1999/xlink" x="0px" y="0px" width="1275.274px" height="311.811px" viewBox="0 0 1275.274 311.811" enable-background="new 0 0 1275.274 311.811" xml:space="preserve"><g id="Vordergrund"><g><g><path fill-rule="evenodd" clip-rule="evenodd" d="M315.36,207.631c0-48.73,16.498-66.242,37.058-66.242c20.556,0,37.054,17.512,37.054,66.242s-16.498,66.242-37.054,66.242C331.858,273.873,315.36,256.361,315.36,207.631zM281.862,207.631c0,63.702,33.754,91.113,70.556,91.113c36.798,0,70.556-27.411,70.556-91.113c0-63.706-33.758-91.113-70.556-91.113C315.616,116.519,281.862,143.926,281.862,207.631z"/><polygon fill-rule="evenodd" clip-rule="evenodd" points="455.969,296.207 488.454,296.207 488.454,218.037 540.99,218.037 540.99,296.207 573.478,296.207 573.478,119.056 540.99,119.056 540.99,191.134 488.454,191.134 488.454,119.056 455.969,119.056"/><polygon fill-rule="evenodd" clip-rule="evenodd" points="620.938,296.207 650.378,296.207 650.378,158.139 650.885,158.139 709.513,296.207 748.345,296.207 748.345,119.056 718.906,119.056 718.906,258.139 718.398,258.139 659.518,119.056 620.938,119.056"/></g><g><g><polygon fill-rule="evenodd" clip-rule="evenodd" points="795.906,296.214 801.42,296.214 801.42,258.662 801.552,258.662 818.818,296.214 825.974,296.214 825.974,250.39 820.459,250.39 820.459,288.204 820.329,288.204 803.062,250.39 795.906,250.39"/><rect x="841.992" y="250.39" fill-rule="evenodd" clip-rule="evenodd" width="5.777" height="45.824"/><polygon fill-rule="evenodd" clip-rule="evenodd" points="864.443,296.214 886.632,296.214 886.632,291.224 870.22,291.224 870.22,274.943 885.058,274.943 885.058,269.954 870.22,269.954 870.22,255.38 885.779,255.38 885.779,250.39 864.443,250.39 "/><path fill-rule="evenodd" clip-rule="evenodd" d="M900.748,296.214h7.155c17.2,0,23.503-10.373,23.503-23.635c0-10.306-4.399-16.083-8.47-18.906c-2.625-1.838-6.105-3.283-12.211-3.283h-9.978V296.214z M906.524,255.38h3.479c11.293,0,15.363,7.615,15.363,17.199c0,11.752-5.252,18.645-15.363,18.645h-3.479V255.38z"/><polygon fill-rule="evenodd" clip-rule="evenodd" points="944.337,296.214 966.527,296.214 966.527,291.224 950.115,291.224 950.115,274.943 964.953,274.943 964.953,269.954 950.115,269.954 950.115,255.38 965.673,255.38 965.673,250.39 944.337,250.39"/><path fill-rule="evenodd" clip-rule="evenodd" d="M980.642,296.214h5.776v-20.745h2.627c4.332,0,5.974,1.443,7.286,5.252l5.252,15.493h6.237l-6.433-18.382c-0.92-2.627-2.233-3.938-4.99-4.465v-0.131c6.762-1.443,9.06-6.105,9.06-10.963c0-3.348-1.051-6.5-3.414-8.731c-2.101-1.969-4.792-3.151-9.65-3.151h-11.751V296.214z M986.418,255.116h4.597c5.054,0,8.403,2.429,8.403,7.55c0,4.005-2.364,8.075-8.535,8.075h-4.465V255.116z"/><path fill-rule="evenodd" clip-rule="evenodd" d="M1039.53,251.44c-2.035-0.854-5.252-1.51-8.272-1.51c-6.959,0-12.736,3.939-12.736,11.489c0,5.908,1.839,8.731,10.11,13.72c6.171,3.742,7.091,5.777,7.091,9.322c0,3.742-2.955,7.223-8.141,7.223c-2.692,0-6.105-1.379-8.731-2.955v5.975c2.429,1.182,5.908,1.97,9.585,1.97c8.797,0,13.326-5.713,13.326-12.999c0-5.252-2.362-9.257-9.453-13.327c-6.565-3.808-7.747-5.646-7.747-8.6c0-3.874,2.823-6.828,7.156-6.828c2.823,0,5.646,0.788,7.813,2.101V251.44z"/><path fill-rule="evenodd" clip-rule="evenodd" d="M1064.87,250.39l-15.362,45.824h5.777l3.676-11.949h17.463l3.677,11.949h6.04l-14.969-45.824H1064.87z M1060.537,279.276l7.221-22.847h0.132l7.025,22.847H1060.537z"/><path fill-rule="evenodd" clip-rule="evenodd" d="M1122.05,289.517c-2.363,1.38-5.252,2.168-8.207,2.168c-9.978,0-14.705-7.813-14.705-19.63c0-11.16,6.828-17.135,14.313-17.135c3.216,0,6.105,0.722,8.6,2.298v-5.646c-2.101-1.051-5.384-1.642-8.666-1.642c-11.948,0-20.285,8.995-20.285,23.306c0,12.408,6.105,23.438,20.613,23.438c2.691,0,5.581-0.526,8.338-1.38V289.517z"/><polygon fill-rule="evenodd" clip-rule="evenodd" points="1133.539,296.214 1139.315,296.214 1139.315,274.943 1155.333,274.943 1155.333,296.214 1161.111,296.214 1161.111,250.39 1155.333,250.39 1155.333,269.954 1139.315,269.954 1139.315,250.39 1133.539,250.39"/><path fill-rule="evenodd" clip-rule="evenodd" d="M1194.723,251.44c-2.035-0.854-5.252-1.51-8.272-1.51c-6.959,0-12.736,3.939-12.736,11.489c0,5.908,1.839,8.731,10.111,13.72c6.17,3.742,7.09,5.777,7.09,9.322c0,3.742-2.955,7.223-8.141,7.223c-2.691,0-6.105-1.379-8.731-2.955v5.975c2.429,1.182,5.908,1.97,9.584,1.97c8.798,0,13.327-5.713,13.327-12.999c0-5.252-2.362-9.257-9.453-13.327c-6.565-3.808-7.747-5.646-7.747-8.6c0-3.874,2.823-6.828,7.156-6.828c2.823,0,5.646,0.788,7.813,2.101V251.44z"/><polygon fill-rule="evenodd" clip-rule="evenodd" points="1209.886,296.214 1232.076,296.214 1232.076,291.224 1215.664,291.224 1215.664,274.943 1230.501,274.943 1230.501,269.954 1215.664,269.954 1215.664,255.38 1231.222,255.38 1231.222,250.39 1209.886,250.39"/><polygon fill-rule="evenodd" clip-rule="evenodd" points="1245.206,296.214 1250.72,296.214 1250.72,258.662 1250.851,258.662 1268.118,296.214 1275.274,296.214 1275.274,250.39 1269.759,250.39 1269.759,288.204 1269.628,288.204 1252.363,250.39 1245.206,250.39"/></g><g><polygon fill-rule="evenodd" clip-rule="evenodd" points="795.906,230.535 801.683,230.535 801.683,209.265 817.702,209.265 817.702,230.535 823.479,230.535 823.479,184.712 817.702,184.712 817.702,204.276 801.683,204.276 801.683,184.712 795.906,184.712"/><path fill-rule="evenodd" clip-rule="evenodd" d="M834.64,208.083c0,14.18,6.5,22.912,16.675,22.912c10.832,0,17.2-8.01,17.2-23.831c0-14.181-6.5-22.912-16.675-22.912C841.008,184.252,834.64,192.262,834.64,208.083zM840.679,208.083c0-14.116,5.121-19.104,11.161-19.104c7.746,0,10.636,8.928,10.636,18.185c0,14.114-5.121,19.104-11.161,19.104C843.569,226.268,840.679,217.339,840.679,208.083z"/><path fill-rule="evenodd" clip-rule="evenodd" d="M907.379,223.839c-2.362,1.379-5.252,2.167-8.206,2.167c-9.979,0-14.705-7.813-14.705-19.629c0-11.16,6.827-17.135,14.312-17.135c3.216,0,6.105,0.722,8.6,2.298v-5.646c-2.101-1.051-5.384-1.642-8.666-1.642c-11.948,0-20.285,8.995-20.285,23.306c0,12.409,6.105,23.438,20.614,23.438c2.691,0,5.58-0.526,8.337-1.379V223.839z"/><polygon fill-rule="evenodd" clip-rule="evenodd" points="918.868,230.535 924.644,230.535 924.644,209.265 940.664,209.265 940.664,230.535 946.441,230.535 946.441,184.712 940.664,184.712 940.664,204.276 924.644,204.276 924.644,184.712 918.868,184.712"/><path fill-rule="evenodd" clip-rule="evenodd" d="M979.396,185.762c-2.035-0.854-5.252-1.51-8.272-1.51c-6.958,0-12.735,3.939-12.735,11.489c0,5.908,1.838,8.731,10.11,13.721c6.171,3.741,7.091,5.777,7.091,9.322c0,3.742-2.955,7.222-8.142,7.222c-2.691,0-6.105-1.379-8.731-2.955v5.975c2.43,1.181,5.908,1.969,9.585,1.969c8.797,0,13.327-5.712,13.327-12.999c0-5.252-2.363-9.257-9.453-13.327c-6.565-3.808-7.748-5.646-7.748-8.6c0-3.874,2.823-6.828,7.156-6.828c2.823,0,5.646,0.788,7.813,2.101V185.762z"/><path fill-rule="evenodd" clip-rule="evenodd" d="M1020.294,223.839c-2.363,1.379-5.252,2.167-8.206,2.167c-9.979,0-14.706-7.813-14.706-19.629c0-11.16,6.828-17.135,14.313-17.135c3.216,0,6.105,0.722,8.6,2.298v-5.646c-2.101-1.051-5.384-1.642-8.666-1.642c-11.947,0-20.285,8.995-20.285,23.306c0,12.409,6.105,23.438,20.613,23.438c2.692,0,5.581-0.526,8.338-1.379V223.839z"/><polygon fill-rule="evenodd" clip-rule="evenodd" points="1031.783,230.535 1037.56,230.535 1037.56,209.265 1053.578,209.265 1053.578,230.535 1059.355,230.535 1059.355,184.712 1053.578,184.712 1053.578,204.276 1037.56,204.276 1037.56,184.712 1031.783,184.712"/><path fill-rule="evenodd" clip-rule="evenodd" d="M1102.159,184.712h-5.777v29.805c0,7.156-3.151,11.751-8.6,11.751c-5.45,0-8.601-4.595-8.601-11.751v-29.805h-5.777v28.951c0,4.53,0.262,7.025,1.838,10.242c1.904,3.808,5.909,7.09,12.54,7.09c6.63,0,10.634-3.283,12.538-7.09c1.576-3.216,1.839-5.712,1.839-10.242V184.712z"/><polygon fill-rule="evenodd" clip-rule="evenodd" points="1117.848,230.535 1138.659,230.535 1138.659,225.546 1123.625,225.546 1123.625,184.712 1117.848,184.712"/><polygon fill-rule="evenodd" clip-rule="evenodd" points="1148.834,230.535 1171.024,230.535 1171.024,225.546 1154.612,225.546 1154.612,209.265 1169.45,209.265 1169.45,204.276 1154.612,204.276 1154.612,189.702 1170.17,189.702 1170.17,184.712 1148.834,184.712"/></g><g><path fill-rule="evenodd" clip-rule="evenodd" d="M793.347,142.434c0,14.18,6.498,22.912,16.674,22.912c10.832,0,17.2-8.01,17.2-23.832c0-14.181-6.499-22.912-16.675-22.912C799.714,118.602,793.347,126.612,793.347,142.434zM799.386,142.434c0-14.116,5.12-19.104,11.16-19.104c7.746,0,10.636,8.929,10.636,18.185c0,14.115-5.121,19.104-11.161,19.104C802.275,160.618,799.386,151.689,799.386,142.434z"/><polygon fill-rule="evenodd" clip-rule="evenodd" points="839.695,164.885 845.472,164.885 845.472,143.614 859.457,143.614 859.457,138.626 845.472,138.626 845.472,124.052 860.179,124.052 860.179,119.062 839.695,119.062"/><polygon fill-rule="evenodd" clip-rule="evenodd" points="872.914,164.885 878.691,164.885 878.691,143.614 892.675,143.614 892.675,138.626 878.691,138.626 878.691,124.052 893.397,124.052 893.397,119.062 872.914,119.062"/><polygon fill-rule="evenodd" clip-rule="evenodd" points="905.804,164.885 927.994,164.885 927.994,159.896 911.581,159.896 911.581,143.614 926.418,143.614 926.418,138.626 911.581,138.626 911.581,124.052 927.14,124.052 927.14,119.062 905.804,119.062"/><polygon fill-rule="evenodd" clip-rule="evenodd" points="941.452,164.885 946.966,164.885 946.966,127.333 947.097,127.333 964.363,164.885 971.52,164.885 971.52,119.062 966.005,119.062 966.005,156.876 965.874,156.876 948.608,119.062 941.452,119.062"/><polygon fill-rule="evenodd" clip-rule="evenodd" points="987.538,164.885 1009.727,164.885 1009.727,159.896 993.315,159.896 993.315,143.614 1008.153,143.614 1008.153,138.626 993.315,138.626 993.315,124.052 1008.874,124.052 1008.874,119.062 987.538,119.062"/></g></g></g><polygon fill="#AFDFF9" points="212.598,63.78 212.598,155.906 155.905,99.213 155.905,79.471 155.905,7.087"/><polygon fill="#FDCB76" points="134.646,214.117 134.646,233.858 116.22,215.433"/><polygon fill-rule="evenodd" clip-rule="evenodd" fill="#D4E190" points="56.693,219.685 0,162.992 0,255.118 56.693,311.811"/><polygon fill-rule="evenodd" clip-rule="evenodd" fill="#D2ECFC" points="255.118,0 311.811,56.693 212.598,63.78 155.905,7.087"/><polygon fill-rule="evenodd" clip-rule="evenodd" fill="#E6EDC0" points="134.646,191.338 155.906,212.599 134.646,214.117"/><g><g><g><g><g><polygon fill-rule="evenodd" clip-rule="evenodd" fill="#EAF0CB" points="98.088,155.906 77.953,157.424 0,162.992 56.693,219.685 155.906,212.599"/></g></g></g></g></g><polygon fill-rule="evenodd" clip-rule="evenodd" fill="#FDCB76" points="212.598,113.386 233.858,134.646 212.598,136.165"/><g><g><polygon fill="#FDCB76" points="77.953,85.04 77.953,157.424 77.953,177.166 134.646,233.858 134.646,141.732"/></g></g><g>	<g><polygon fill="#E8BD5E" points="98.088,155.906 77.953,157.424 77.953,177.166 116.22,215.433 134.646,214.117 134.646,191.752"/></g></g><polygon fill-rule="evenodd" clip-rule="evenodd" fill="#FEE0AC" points="233.858,134.646 134.646,141.732 77.953,85.04 155.905,79.471 177.088,77.905"/><g><g><polygon fill="#ADC3A8" points="194.173,137.48 212.598,136.165 212.598,113.396 177.088,77.905 155.905,79.471 155.905,99.213 "/></g></g></g><g id="Hilfslinien_anzeigen" display="none"/></svg>